<svg width="24" height="24" viewBox="0 0 24 24" fill="none" xmlns="http://www.w3.org/2000/svg">
<path fill-rule="evenodd" clip-rule="evenodd" d="M12.2384 16.3195C12.1025 16.436 11.9294 16.5 11.7504 16.5C11.5714 16.5 11.3983 16.436 11.2624 16.3195L4.2624 10.3195C4.18755 10.2554 4.12605 10.1772 4.08142 10.0894C4.03679 10.0015 4.0099 9.90575 4.00229 9.8075C3.99467 9.70926 4.00648 9.61048 4.03704 9.5168C4.06761 9.42312 4.11632 9.33637 4.18041 9.26152C4.24449 9.18667 4.32269 9.12517 4.41055 9.08054C4.4984 9.03591 4.59418 9.00902 4.69242 9.0014C4.79067 8.99379 4.88945 9.0056 4.98313 9.03616C5.07681 9.06672 5.16355 9.11544 5.23841 9.17952L11.7504 14.7625L18.2624 9.18152C18.3366 9.11362 18.4236 9.06132 18.5184 9.02773C18.6131 8.99414 18.7137 8.97995 18.8141 8.986C18.9144 8.99205 19.0125 9.01822 19.1026 9.06295C19.1926 9.10768 19.2728 9.17006 19.3382 9.24638C19.4037 9.3227 19.4531 9.41141 19.4836 9.50722C19.5141 9.60303 19.525 9.70399 19.5157 9.8041C19.5064 9.90422 19.477 10.0014 19.4294 10.09C19.3818 10.1785 19.3168 10.2566 19.2384 10.3195L12.2384 16.3195Z" fill="black"/>
</svg>
