<svg width="24" height="24" viewBox="0 0 24 24" fill="none" xmlns="http://www.w3.org/2000/svg">
<g id="fluent:ios-arrow-24-filled">
<path id="Vector" d="M18.651 7.24186C18.7273 7.1646 18.8171 7.1042 18.9152 7.06411C19.0134 7.02402 19.1179 7.00503 19.2229 7.00821C19.3279 7.01139 19.4312 7.03668 19.5271 7.08265C19.6229 7.12862 19.7094 7.19436 19.7815 7.27611C19.8537 7.35787 19.9101 7.45404 19.9475 7.55914C19.9849 7.66424 20.0027 7.7762 19.9997 7.88864C19.9967 8.00108 19.9731 8.1118 19.9302 8.21446C19.8873 8.31712 19.8259 8.40973 19.7495 8.48699L12.5538 15.7659C12.4053 15.9162 12.2088 16 12.0045 16C11.8002 16 11.6037 15.9162 11.4552 15.7659L4.25864 8.48699C4.18064 8.41024 4.11765 8.31765 4.07333 8.21461C4.02902 8.11157 4.00427 8.00013 4.0005 7.88675C3.99674 7.77338 4.01405 7.66033 4.05143 7.55418C4.0888 7.44803 4.1455 7.35089 4.21822 7.26841C4.29094 7.18592 4.37824 7.11974 4.47504 7.0737C4.57185 7.02765 4.67623 7.00267 4.78212 7.0002C4.88802 6.99773 4.99332 7.01782 5.0919 7.05931C5.19048 7.10079 5.28039 7.16284 5.35639 7.24186L12.0045 13.9659L18.651 7.24186Z" fill="#3151A3"/>
</g>
</svg>
