<svg width="64" height="64" viewBox="0 0 64 64" fill="none" xmlns="http://www.w3.org/2000/svg">
<path d="M26 12H38C38.5304 12 39.0391 12.2107 39.4142 12.5858C39.7893 12.9609 40 13.4696 40 14V20H24V14C24 13.4696 24.2107 12.9609 24.5858 12.5858C24.9609 12.2107 25.4696 12 26 12ZM20 14V20H16C13.8783 20 11.8434 20.8429 10.3431 22.3431C8.84285 23.8434 8 25.8783 8 28V48C8 50.1217 8.84285 52.1566 10.3431 53.6569C11.8434 55.1571 13.8783 56 16 56H48C50.1217 56 52.1566 55.1571 53.6569 53.6569C55.1571 52.1566 56 50.1217 56 48V28C56 25.8783 55.1571 23.8434 53.6569 22.3431C52.1566 20.8429 50.1217 20 48 20H44V14C44 12.4087 43.3679 10.8826 42.2426 9.75736C41.1174 8.63214 39.5913 8 38 8H26C24.4087 8 22.8826 8.63214 21.7574 9.75736C20.6321 10.8826 20 12.4087 20 14ZM48 24C49.0609 24 50.0783 24.4214 50.8284 25.1716C51.5786 25.9217 52 26.9391 52 28V48C52 49.0609 51.5786 50.0783 50.8284 50.8284C50.0783 51.5786 49.0609 52 48 52H16C14.9391 52 13.9217 51.5786 13.1716 50.8284C12.4214 50.0783 12 49.0609 12 48V28C12 26.9391 12.4214 25.9217 13.1716 25.1716C13.9217 24.4214 14.9391 24 16 24H48ZM34 32C34 31.4696 33.7893 30.9609 33.4142 30.5858C33.0391 30.2107 32.5304 30 32 30C31.4696 30 30.9609 30.2107 30.5858 30.5858C30.2107 30.9609 30 31.4696 30 32V36H26C25.4696 36 24.9609 36.2107 24.5858 36.5858C24.2107 36.9609 24 37.4696 24 38C24 38.5304 24.2107 39.0391 24.5858 39.4142C24.9609 39.7893 25.4696 40 26 40H30V44C30 44.5304 30.2107 45.0391 30.5858 45.4142C30.9609 45.7893 31.4696 46 32 46C32.5304 46 33.0391 45.7893 33.4142 45.4142C33.7893 45.0391 34 44.5304 34 44V40H38C38.5304 40 39.0391 39.7893 39.4142 39.4142C39.7893 39.0391 40 38.5304 40 38C40 37.4696 39.7893 36.9609 39.4142 36.5858C39.0391 36.2107 38.5304 36 38 36H34V32Z" fill="#E3C1DC"/>
</svg>
