<svg width="64" height="64" viewBox="0 0 64 64" fill="none" xmlns="http://www.w3.org/2000/svg">
<path d="M55.9375 53.6562C57.9792 54.6562 59.6667 56.0625 61 57.875C62.3333 59.6875 63.1771 61.7292 63.5312 64H60.0938C59.8646 62.8125 59.4375 61.7083 58.8125 60.6875C58.1875 59.6667 57.4271 58.7917 56.5312 58.0625C55.6354 57.3333 54.625 56.75 53.5 56.3125C52.375 55.875 51.2083 55.6667 50 55.6875C48.7708 55.6875 47.6042 55.8958 46.5 56.3125C45.3958 56.7292 44.3854 57.3021 43.4688 58.0312C42.5521 58.7604 41.7917 59.6458 41.1875 60.6875C40.5833 61.7292 40.1562 62.8333 39.9062 64H36.4688C36.8021 61.75 37.6354 59.7188 38.9688 57.9062C40.3021 56.0938 42 54.6771 44.0625 53.6562C42.875 52.7188 41.9583 51.5833 41.3125 50.25C40.6667 48.9167 40.3333 47.5 40.3125 46C40.3125 45.0625 40.4375 44.1562 40.6875 43.2812C40.9375 42.4062 41.3125 41.5833 41.8125 40.8125C42.3125 40.0417 42.9062 39.3542 43.5938 38.75C44.2812 38.1458 45.0521 37.6354 45.9062 37.2188C45.3438 36.4062 44.6979 35.6875 43.9688 35.0625C43.2396 34.4375 42.4479 33.8854 41.5938 33.4062C40.7396 32.9271 39.8438 32.5833 38.9062 32.375C37.9688 32.1667 37 32.0417 36 32C34.3333 32 32.7396 32.3229 31.2188 32.9688C29.6979 33.6146 28.375 34.5625 27.25 35.8125C27.75 37.1667 28 38.5625 28 40C28 41.9167 27.5729 43.7188 26.7188 45.4062C25.8646 47.0938 24.6667 48.5104 23.125 49.6562C24.4792 50.3438 25.6979 51.1875 26.7812 52.1875C27.8646 53.1875 28.8021 54.3125 29.5938 55.5625C30.3854 56.8125 30.9792 58.1458 31.375 59.5625C31.7708 60.9792 31.9792 62.4583 32 64H28C28 62.3542 27.6875 60.8021 27.0625 59.3438C26.4375 57.8854 25.5833 56.6146 24.5 55.5312C23.4167 54.4479 22.1354 53.5833 20.6562 52.9375C19.1771 52.2917 17.625 51.9792 16 52C14.3333 52 12.7812 52.3125 11.3438 52.9375C9.90625 53.5625 8.63542 54.4167 7.53125 55.5C6.42708 56.5833 5.5625 57.8646 4.9375 59.3438C4.3125 60.8229 4 62.375 4 64H0C0 62.4792 0.208333 61.0104 0.625 59.5938C1.04167 58.1771 1.63542 56.8438 2.40625 55.5938C3.17708 54.3438 4.10417 53.2188 5.1875 52.2188C6.27083 51.2188 7.5 50.3646 8.875 49.6562C7.33333 48.5104 6.13542 47.0938 5.28125 45.4062C4.42708 43.7188 4 41.9167 4 40C4 38.3542 4.3125 36.8021 4.9375 35.3438C5.5625 33.8854 6.41667 32.6146 7.5 31.5312C8.58333 30.4479 9.85417 29.5833 11.3125 28.9375C12.7708 28.2917 14.3333 27.9792 16 28C17.7708 28 19.4479 28.375 21.0312 29.125C22.6146 29.875 23.9896 30.9167 25.1562 32.25C25.6979 31.7292 26.2812 31.2604 26.9062 30.8438C27.5312 30.4271 28.1875 30.0312 28.875 29.6562C27.3333 28.5104 26.1354 27.0938 25.2812 25.4062C24.4271 23.7188 24 21.9167 24 20C24 18.3542 24.3125 16.8021 24.9375 15.3438C25.5625 13.8854 26.4167 12.6146 27.5 11.5312C28.5833 10.4479 29.8542 9.58333 31.3125 8.9375C32.7708 8.29167 34.3333 7.97917 36 8C37.6458 8 39.1979 8.3125 40.6562 8.9375C42.1146 9.5625 43.3854 10.4167 44.4688 11.5C45.5521 12.5833 46.4167 13.8646 47.0625 15.3438C47.7083 16.8229 48.0208 18.375 48 20C48 21.9167 47.5729 23.7188 46.7188 25.4062C45.8646 27.0938 44.6667 28.5104 43.125 29.6562C44.5833 30.4271 45.8958 31.3646 47.0625 32.4688C48.2292 33.5729 49.2188 34.8542 50.0312 36.3125C51.3646 36.3125 52.6146 36.5625 53.7812 37.0625C54.9479 37.5625 55.9792 38.2604 56.875 39.1562C57.7708 40.0521 58.4583 41.0729 58.9375 42.2188C59.4167 43.3646 59.6667 44.625 59.6875 46C59.6875 47.5 59.3646 48.9167 58.7188 50.25C58.0729 51.5833 57.1458 52.7188 55.9375 53.6562ZM16 48C17.1042 48 18.1354 47.7917 19.0938 47.375C20.0521 46.9583 20.9062 46.3854 21.6562 45.6562C22.4062 44.9271 22.9792 44.0833 23.375 43.125C23.7708 42.1667 23.9792 41.125 24 40C24 38.8958 23.7917 37.8646 23.375 36.9062C22.9583 35.9479 22.3854 35.0938 21.6562 34.3438C20.9271 33.5938 20.0833 33.0208 19.125 32.625C18.1667 32.2292 17.125 32.0208 16 32C14.8958 32 13.8646 32.2083 12.9062 32.625C11.9479 33.0417 11.0938 33.6146 10.3438 34.3438C9.59375 35.0729 9.02083 35.9167 8.625 36.875C8.22917 37.8333 8.02083 38.875 8 40C8 41.1042 8.20833 42.1354 8.625 43.0938C9.04167 44.0521 9.61458 44.9062 10.3438 45.6562C11.0729 46.4062 11.9167 46.9792 12.875 47.375C13.8333 47.7708 14.875 47.9792 16 48ZM28 20C28 21.1042 28.2083 22.1354 28.625 23.0938C29.0417 24.0521 29.6146 24.9062 30.3438 25.6562C31.0729 26.4062 31.9167 26.9792 32.875 27.375C33.8333 27.7708 34.875 27.9792 36 28C37.1042 28 38.1354 27.7917 39.0938 27.375C40.0521 26.9583 40.9062 26.3854 41.6562 25.6562C42.4062 24.9271 42.9792 24.0833 43.375 23.125C43.7708 22.1667 43.9792 21.125 44 20C44 18.8958 43.7917 17.8646 43.375 16.9062C42.9583 15.9479 42.3854 15.0938 41.6562 14.3438C40.9271 13.5938 40.0833 13.0208 39.125 12.625C38.1667 12.2292 37.125 12.0208 36 12C34.8958 12 33.8646 12.2083 32.9062 12.625C31.9479 13.0417 31.0938 13.6146 30.3438 14.3438C29.5938 15.0729 29.0208 15.9167 28.625 16.875C28.2292 17.8333 28.0208 18.875 28 20ZM50 39.6875C49.125 39.6875 48.3125 39.8542 47.5625 40.1875C46.8125 40.5208 46.1458 40.9688 45.5625 41.5312C44.9792 42.0938 44.5208 42.7604 44.1875 43.5312C43.8542 44.3021 43.6875 45.125 43.6875 46C43.6875 46.875 43.8542 47.6875 44.1875 48.4375C44.5208 49.1875 44.9688 49.8542 45.5312 50.4375C46.0938 51.0208 46.7604 51.4792 47.5312 51.8125C48.3021 52.1458 49.125 52.3125 50 52.3125C50.875 52.3125 51.6875 52.1458 52.4375 51.8125C53.1875 51.4792 53.8542 51.0312 54.4375 50.4688C55.0208 49.9062 55.4792 49.2396 55.8125 48.4688C56.1458 47.6979 56.3125 46.875 56.3125 46C56.3125 45.125 56.1458 44.3125 55.8125 43.5625C55.4792 42.8125 55.0312 42.1458 54.4688 41.5625C53.9062 40.9792 53.2396 40.5208 52.4688 40.1875C51.6979 39.8542 50.875 39.6875 50 39.6875Z" fill="#E3C1DC"/>
</svg>
