<svg width="56" height="56" viewBox="0 0 56 56" fill="none" xmlns="http://www.w3.org/2000/svg">
<rect x="1" y="1" width="54" height="54" rx="27" stroke="#3151A3" stroke-width="2"/>
<path d="M28.0013 24.25C27.0067 24.25 26.0529 24.6451 25.3496 25.3483C24.6463 26.0516 24.2513 27.0054 24.2513 28C24.2513 28.9946 24.6463 29.9484 25.3496 30.6516C26.0529 31.3549 27.0067 31.75 28.0013 31.75C28.9958 31.75 29.9496 31.3549 30.6529 30.6516C31.3562 29.9484 31.7513 28.9946 31.7513 28C31.7513 27.0054 31.3562 26.0516 30.6529 25.3483C29.9496 24.6451 28.9958 24.25 28.0013 24.25ZM28.0013 21.75C29.6589 21.75 31.2486 22.4085 32.4207 23.5806C33.5928 24.7527 34.2512 26.3424 34.2512 28C34.2512 29.6576 33.5928 31.2473 32.4207 32.4194C31.2486 33.5915 29.6589 34.25 28.0013 34.25C26.3436 34.25 24.7539 33.5915 23.5818 32.4194C22.4097 31.2473 21.7512 29.6576 21.7512 28C21.7512 26.3424 22.4097 24.7527 23.5818 23.5806C24.7539 22.4085 26.3436 21.75 28.0013 21.75ZM36.1262 21.4375C36.1262 21.8519 35.9616 22.2493 35.6686 22.5424C35.3756 22.8354 34.9782 23 34.5637 23C34.1493 23 33.7519 22.8354 33.4589 22.5424C33.1659 22.2493 33.0012 21.8519 33.0012 21.4375C33.0012 21.0231 33.1659 20.6257 33.4589 20.3326C33.7519 20.0396 34.1493 19.875 34.5637 19.875C34.9782 19.875 35.3756 20.0396 35.6686 20.3326C35.9616 20.6257 36.1262 21.0231 36.1262 21.4375ZM28.0013 18C24.9088 18 24.4038 18.0087 22.965 18.0725C21.985 18.1187 21.3275 18.25 20.7175 18.4875C20.207 18.6749 19.7455 18.9753 19.3675 19.3662C18.9763 19.7442 18.6754 20.2057 18.4875 20.7162C18.25 21.3287 18.1188 21.985 18.0738 22.9637C18.0088 24.3437 18 24.8262 18 28C18 31.0937 18.0088 31.5975 18.0725 33.0362C18.1188 34.015 18.25 34.6737 18.4862 35.2825C18.6987 35.8262 18.9487 36.2175 19.3637 36.6325C19.785 37.0525 20.1762 37.3037 20.7137 37.5112C21.3312 37.75 21.9888 37.8825 22.9638 37.9275C24.3438 37.9925 24.8263 38 28 38C31.0938 38 31.5975 37.9912 33.0362 37.9275C34.0137 37.8812 34.6713 37.75 35.2825 37.5137C35.7925 37.3254 36.2538 37.0251 36.6325 36.635C37.0537 36.215 37.305 35.8237 37.5125 35.285C37.75 34.67 37.8825 34.0125 37.9275 33.035C37.9925 31.6562 38 31.1725 38 28C38 24.9075 37.9912 24.4025 37.9275 22.9637C37.8812 21.9862 37.7488 21.3262 37.5125 20.7162C37.3241 20.2063 37.0238 19.745 36.6337 19.3662C36.2559 18.9748 35.7944 18.674 35.2837 18.4862C34.6712 18.2487 34.0137 18.1175 33.0362 18.0725C31.6575 18.0075 31.175 18 28 18M28 15.5C31.3963 15.5 31.82 15.5125 33.1537 15.575C34.4837 15.6375 35.3912 15.8463 36.1875 16.1562C37.0125 16.4737 37.7075 16.9037 38.4025 17.5975C39.0381 18.2224 39.5299 18.9782 39.8438 19.8125C40.1525 20.6087 40.3625 21.5162 40.425 22.8475C40.4838 24.18 40.5 24.6037 40.5 28C40.5 31.3962 40.4875 31.82 40.425 33.1525C40.3625 34.4837 40.1525 35.39 39.8438 36.1875C39.5308 37.0222 39.0389 37.7782 38.4025 38.4025C37.7775 39.0379 37.0216 39.5297 36.1875 39.8437C35.3912 40.1525 34.4837 40.3625 33.1537 40.425C31.82 40.4837 31.3963 40.5 28 40.5C24.6037 40.5 24.18 40.4875 22.8462 40.425C21.5162 40.3625 20.61 40.1525 19.8125 39.8437C18.9779 39.5306 18.2219 39.0387 17.5975 38.4025C16.9618 37.7777 16.47 37.0218 16.1563 36.1875C15.8463 35.3912 15.6375 34.4837 15.575 33.1525C15.515 31.82 15.5 31.3962 15.5 28C15.5 24.6037 15.5125 24.18 15.575 22.8475C15.6375 21.5162 15.8463 20.61 16.1563 19.8125C16.469 18.9777 16.961 18.2217 17.5975 17.5975C18.2221 16.9615 18.978 16.4697 19.8125 16.1562C20.6088 15.8463 21.515 15.6375 22.8462 15.575C24.1812 15.5162 24.605 15.5 28.0013 15.5" fill="#3151A3"/>
</svg>
