<!--
  - Created by Nitheesh AG on 11, 2, 2024
  - Copyright (C) 2024 Able hands support services Pty Ltd. - All Rights Reserved
  -
  - Unauthorized copying or redistribution of this file in source and binary forms via any medium
  - is strictly prohibited.
  -->

<svg width="64" height="64" viewBox="0 0 64 64" fill="none" xmlns="http://www.w3.org/2000/svg">
<g clip-path="url(#clip0_6_86)">
<path d="M32 5.33325C46.728 5.33325 58.6666 17.2719 58.6666 31.9999C58.6666 46.7279 46.728 58.6666 32 58.6666C17.272 58.6666 5.33331 46.7279 5.33331 31.9999C5.33331 17.2719 17.272 5.33325 32 5.33325ZM32 10.6666C26.342 10.6666 20.9158 12.9142 16.915 16.915C12.9143 20.9157 10.6666 26.342 10.6666 31.9999C10.6666 37.6579 12.9143 43.0841 16.915 47.0849C20.9158 51.0856 26.342 53.3332 32 53.3332C37.6579 53.3332 43.0841 51.0856 47.0849 47.0849C51.0857 43.0841 53.3333 37.6579 53.3333 31.9999C53.3333 26.342 51.0857 20.9157 47.0849 16.915C43.0841 12.9142 37.6579 10.6666 32 10.6666ZM32 15.9999C32.6531 16 33.2835 16.2398 33.7716 16.6738C34.2597 17.1078 34.5716 17.7059 34.648 18.3546L34.6666 18.6666V30.8959L41.8853 38.1146C42.3636 38.5945 42.6412 39.2384 42.6619 39.9156C42.6826 40.5928 42.4447 41.2525 41.9966 41.7607C41.5486 42.2688 40.9238 42.5874 40.2494 42.6516C39.5749 42.7159 38.9013 42.521 38.3653 42.1066L38.1146 41.8853L30.1146 33.8853C29.7002 33.4704 29.434 32.9306 29.3573 32.3492L29.3333 31.9999V18.6666C29.3333 17.9593 29.6143 17.2811 30.1144 16.781C30.6145 16.2809 31.2927 15.9999 32 15.9999Z" fill="#E3C1DC"/>
</g>
<defs>
<clipPath id="clip0_6_86">
<rect width="64" height="64" fill="white"/>
</clipPath>
</defs>
</svg>
