<!--
  - Created by Nitheesh AG on 11, 2, 2024
  - Copyright (C) 2024 Able hands support services Pty Ltd. - All Rights Reserved
  -
  - Unauthorized copying or redistribution of this file in source and binary forms via any medium
  - is strictly prohibited.
  -->

<svg width="64" height="64" viewBox="0 0 64 64" fill="none" xmlns="http://www.w3.org/2000/svg">
<path fill-rule="evenodd" clip-rule="evenodd" d="M31.8507 3.33325H32.1493C37.0507 3.33325 40.9333 3.33325 43.9707 3.74125C47.096 4.16259 49.6267 5.04792 51.624 7.04259C53.6187 9.03992 54.504 11.5706 54.9253 14.6959C55.2 16.7333 55.288 19.1493 55.3173 21.9999H56C58.576 21.9999 60.6667 24.0906 60.6667 26.6666V29.3333C60.6667 30.7999 59.9733 32.1866 58.8 33.0666L55.3253 35.6719C55.3067 38.9572 55.2293 41.6986 54.9253 43.9706C54.504 47.0959 53.6187 49.6266 51.624 51.6239C51.1173 52.1306 50.576 52.5652 50 52.9386V55.9999C50 57.2376 49.5083 58.4246 48.6332 59.2997C47.758 60.1749 46.571 60.6666 45.3333 60.6666H41.3333C40.0956 60.6666 38.9087 60.1749 38.0335 59.2997C37.1583 58.4246 36.6667 57.2376 36.6667 55.9999V55.3172C35.2667 55.3332 33.7653 55.3332 32.1493 55.3332H31.8507C30.2347 55.3332 28.7307 55.3332 27.3333 55.3172V55.9999C27.3333 57.2376 26.8417 58.4246 25.9665 59.2997C25.0913 60.1749 23.9043 60.6666 22.6667 60.6666H18.6667C17.429 60.6666 16.242 60.1749 15.3668 59.2997C14.4917 58.4246 14 57.2376 14 55.9999V52.9386C13.414 52.5585 12.8697 52.1179 12.376 51.6239C10.3813 49.6266 9.496 47.0959 9.07466 43.9706C8.77066 41.6986 8.69333 38.9572 8.67466 35.6719L5.19999 33.0666C4.02666 32.1866 3.33333 30.7999 3.33333 29.3333V26.6666C3.33333 24.0906 5.42399 21.9999 7.99999 21.9999H8.68C8.712 19.1493 8.79999 16.7333 9.07466 14.6959C9.496 11.5706 10.3813 9.03992 12.376 7.04259C14.3733 5.04792 16.904 4.16259 20.0293 3.74125C23.0693 3.33325 26.9493 3.33325 31.8507 3.33325ZM8.66666 25.9999H7.99999C7.82318 25.9999 7.65361 26.0702 7.52859 26.1952C7.40357 26.3202 7.33333 26.4898 7.33333 26.6666V29.3333C7.33333 29.4367 7.35742 29.5388 7.40371 29.6314C7.45 29.724 7.5172 29.8045 7.59999 29.8666L8.66666 30.6666V26.5173V25.9999ZM12.6827 36.6666C12.7093 39.4239 12.7947 41.6213 13.04 43.4399C13.4 46.1199 14.0773 47.6666 15.2053 48.7946C16.3333 49.9226 17.88 50.5999 20.5627 50.9599C23.304 51.3279 26.9147 51.3332 32 51.3332C37.0853 51.3332 40.6987 51.3279 43.44 50.9599C46.12 50.5999 47.6667 49.9226 48.7947 48.7946C49.9227 47.6666 50.6 46.1199 50.96 43.4372C51.2053 41.6239 51.288 39.4239 51.3173 36.6666H12.6827ZM51.3333 32.6666H12.6667V26.6666C12.6667 21.6453 12.672 18.0613 13.0267 15.3333H50.9733C51.328 18.0613 51.3333 21.6453 51.3333 26.6666V31.9999V32.6666ZM55.3333 30.6666L56.4 29.8666C56.4828 29.8045 56.55 29.724 56.5963 29.6314C56.6426 29.5388 56.6667 29.4367 56.6667 29.3333V26.6666C56.6667 26.4898 56.5964 26.3202 56.4714 26.1952C56.3464 26.0702 56.1768 25.9999 56 25.9999H55.3333V26.5173V30.6666ZM49.8693 11.3333C49.5872 10.7945 49.2248 10.3018 48.7947 9.87192C47.6667 8.74392 46.12 8.06659 43.4373 7.70659C40.696 7.33859 37.0853 7.33325 32 7.33325C26.9147 7.33325 23.304 7.33859 20.56 7.70659C17.88 8.06659 16.3333 8.74392 15.2053 9.87192C14.7754 10.302 14.4131 10.7947 14.1307 11.3333H49.8693ZM18 54.5599V55.9999C18 56.3679 18.2987 56.6666 18.6667 56.6666H22.6667C22.8435 56.6666 23.013 56.5963 23.1381 56.4713C23.2631 56.3463 23.3333 56.1767 23.3333 55.9999V55.2106C22.2285 55.1609 21.1263 55.0657 20.0293 54.9253C19.3475 54.8353 18.6704 54.7133 18 54.5599ZM40.6667 55.2106V55.9999C40.6667 56.3679 40.9653 56.6666 41.3333 56.6666H45.3333C45.5101 56.6666 45.6797 56.5963 45.8047 56.4713C45.9298 56.3463 46 56.1767 46 55.9999V54.5599C45.3298 54.7141 44.6526 54.836 43.9707 54.9253C42.8737 55.0657 41.7714 55.1609 40.6667 55.2106ZM16.6667 42.6666C16.6667 42.1362 16.8774 41.6274 17.2524 41.2524C17.6275 40.8773 18.1362 40.6666 18.6667 40.6666H22.6667C23.1971 40.6666 23.7058 40.8773 24.0809 41.2524C24.4559 41.6274 24.6667 42.1362 24.6667 42.6666C24.6667 43.197 24.4559 43.7057 24.0809 44.0808C23.7058 44.4559 23.1971 44.6666 22.6667 44.6666H18.6667C18.1362 44.6666 17.6275 44.4559 17.2524 44.0808C16.8774 43.7057 16.6667 43.197 16.6667 42.6666ZM39.3333 42.6666C39.3333 42.1362 39.544 41.6274 39.9191 41.2524C40.2942 40.8773 40.8029 40.6666 41.3333 40.6666H45.3333C45.8638 40.6666 46.3725 40.8773 46.7475 41.2524C47.1226 41.6274 47.3333 42.1362 47.3333 42.6666C47.3333 43.197 47.1226 43.7057 46.7475 44.0808C46.3725 44.4559 45.8638 44.6666 45.3333 44.6666H41.3333C40.8029 44.6666 40.2942 44.4559 39.9191 44.0808C39.544 43.7057 39.3333 43.197 39.3333 42.6666Z" fill="#E3C1DC"/>
</svg>
