<!--
  - Created by Nitheesh AG on 11, 2, 2024
  - Copyright (C) 2024 Able hands support services Pty Ltd. - All Rights Reserved
  -
  - Unauthorized copying or redistribution of this file in source and binary forms via any medium
  - is strictly prohibited.
  -->

<svg width="64" height="64" viewBox="0 0 64 64" fill="none" xmlns="http://www.w3.org/2000/svg">
<path d="M8.00001 22.036V22C7.99996 18.4443 9.05305 14.9681 11.0264 12.0102C12.9998 9.05228 15.805 6.74509 19.0882 5.3797C22.3713 4.01432 25.9854 3.65192 29.4743 4.33823C32.9632 5.02454 36.1706 6.72881 38.692 9.23602C40.6758 8.25687 42.8917 7.84518 45.0949 8.04645C47.298 8.24772 49.4026 9.05411 51.1762 10.3765C52.9497 11.6989 54.3232 13.4859 55.1448 15.54C55.9665 17.594 56.2043 19.8353 55.832 22.016C56.3794 22.0668 56.9104 22.2299 57.3919 22.495C57.8734 22.7602 58.2951 23.1218 58.6306 23.5572C58.9662 23.9925 59.2084 24.4924 59.3421 25.0256C59.4759 25.5588 59.4983 26.1138 59.408 26.656C57.6 37.532 53.128 44.416 46 47.312V50C46 51.5913 45.3679 53.1174 44.2427 54.2427C43.1174 55.3679 41.5913 56 40 56H24C22.4087 56 20.8826 55.3679 19.7574 54.2427C18.6322 53.1174 18 51.5913 18 50V47.312C10.872 44.416 6.40001 37.532 4.59201 26.656C4.50476 26.1282 4.52427 25.5882 4.64939 25.0681C4.77452 24.5479 5.00271 24.0582 5.32047 23.6278C5.63823 23.1974 6.0391 22.8351 6.49936 22.5624C6.95961 22.2897 7.4699 22.112 8.00001 22.04V22.036ZM12 22H16C16 19.3479 17.0536 16.8043 18.9289 14.929C20.8043 13.0536 23.3479 12 26 12C28.6522 12 31.1957 13.0536 33.0711 14.929C34.9464 16.8043 36 19.3479 36 22H40C40 18.287 38.525 14.726 35.8995 12.1005C33.274 9.47502 29.713 8.00002 26 8.00002C22.287 8.00002 18.726 9.47502 16.1005 12.1005C13.475 14.726 12 18.287 12 22ZM20 22H32C32 20.4087 31.3679 18.8826 30.2427 17.7574C29.1174 16.6322 27.5913 16 26 16C24.4087 16 22.8826 16.6322 21.7574 17.7574C20.6322 18.8826 20 20.4087 20 22ZM47.464 22H51.748C52.05 20.8179 52.0781 19.5825 51.8303 18.3878C51.5825 17.1932 51.0653 16.0709 50.318 15.1064C49.5707 14.142 48.6132 13.3608 47.5183 12.8225C46.4234 12.2841 45.2201 12.0028 44 12C43.04 12 42.128 12.168 41.28 12.476C41.988 13.612 42.572 14.836 43.02 16.12C43.7819 15.9311 44.5825 15.97 45.3224 16.2319C46.0623 16.4939 46.7091 16.9673 47.1824 17.5935C47.6557 18.2197 47.9346 18.9712 47.9847 19.7545C48.0348 20.5378 47.8537 21.3186 47.464 22ZM42 48H22V50C22 50.5305 22.2107 51.0392 22.5858 51.4142C22.9609 51.7893 23.4696 52 24 52H40C40.5304 52 41.0392 51.7893 41.4142 51.4142C41.7893 51.0392 42 50.5305 42 50V48ZM20.592 44H43.408C49.752 41.96 53.768 36.192 55.464 26H8.53602C10.232 36.192 14.248 41.96 20.592 44Z" fill="#E3C1DC"/>
</svg>
