<!--
  - Created by Nitheesh AG on 11, 2, 2024
  - Copyright (C) 2024 Able hands support services Pty Ltd. - All Rights Reserved
  -
  - Unauthorized copying or redistribution of this file in source and binary forms via any medium
  - is strictly prohibited.
  -->

<svg width="64" height="64" viewBox="0 0 64 64" fill="none" xmlns="http://www.w3.org/2000/svg">
<path d="M30.5139 35.1874C31.2056 33.8291 32.173 32.4029 33.4889 30.9408L33.489 30.9407L34.3824 29.95L34.5496 29.7645L34.7353 29.9316L36.7179 31.7156L36.904 31.883L36.7364 32.0688L35.8432 33.0593C35.8432 33.0594 35.8431 33.0594 35.843 33.0595C34.8331 34.1818 34.083 35.2464 33.5348 36.2393C33.6482 38.0491 35.0765 39.1046 36.7264 39.173L36.7265 39.173C37.5678 39.2081 38.3273 38.9637 38.8519 38.5199L38.852 38.5198C39.3417 38.106 39.75 37.4169 39.75 36.2641V24.4648C36.4553 26.5744 33.1413 27.609 30.4761 28.441L30.4711 28.4425C30.3996 28.4651 30.3285 28.4874 30.2579 28.5096C29.9056 28.6203 29.5651 28.7274 29.2384 28.8326C27.427 29.419 26.1844 29.9218 25.374 30.5915C25.023 30.8824 24.7458 31.2115 24.5544 31.6319C24.3623 32.0537 24.25 32.5817 24.25 33.2787C24.25 34.052 24.5093 34.581 24.8843 34.9655L24.8845 34.9657C25.2851 35.3772 25.894 35.698 26.6612 35.8608L30.5139 35.1874ZM30.5139 35.1874C29.572 35.8523 28.0611 36.1577 26.6613 35.8609L30.5139 35.1874ZM42.9167 18.4587V17.9194L42.5051 18.268L40.3106 20.1265C40.3105 20.1266 40.3105 20.1266 40.3105 20.1266C36.7279 23.1571 32.9264 24.3532 29.5398 25.4162L29.5392 25.4164C29.3953 25.462 29.2521 25.5072 29.1097 25.5522C28.8241 25.6424 28.5416 25.7316 28.2637 25.8207L28.2631 25.8209C26.4897 26.3947 24.69 27.0492 23.3553 28.1542C21.8956 29.362 21.0834 31.0184 21.0834 33.2801C21.0834 34.8644 21.6575 36.1898 22.6155 37.1744C23.5484 38.1338 24.773 38.6982 26.0056 38.9593L26.007 38.9596C27.0606 39.1763 28.1441 39.1965 29.203 39.0203C28.5909 42.52 29.7327 45.2163 30.8394 46.41L30.8394 46.4101L31.7461 47.3874L31.9161 47.5707L32.0994 47.4007L34.0541 45.5874L34.2373 45.4173L34.0673 45.234L33.1609 44.257C33.1608 44.2569 33.1607 44.2568 33.1607 44.2567C33.1607 44.2567 33.1607 44.2567 33.1607 44.2567C32.846 43.9164 32.0959 42.575 32.2114 40.5077C33.4126 41.6576 35.0363 42.2719 36.5935 42.3365C38.0919 42.4 39.6685 41.9767 40.8961 40.939L40.8963 40.9389C42.1585 39.87 42.9167 38.2657 42.9167 36.2641V18.4587Z" fill="#E3C1DC" stroke="#E3C1DC" stroke-width="0.5"/>
<path d="M32.7517 56.0608L32.806 56.0318C32.8062 56.0317 32.8064 56.0316 32.8066 56.0315C32.8781 55.9938 32.9494 55.9557 33.0205 55.9171L33.0221 55.9162C37.3136 53.548 41.3428 50.733 45.0427 47.5181L45.0434 47.5174C51.121 42.1933 57.5834 34.3642 57.5834 24.9667C57.5834 20.5738 56.1318 16.3188 53.6341 13.1324C51.1315 9.9355 47.5158 7.75 43.2507 7.75C38.3211 7.75 34.5608 10.4735 32 14.3135C29.438 10.4723 25.6778 7.75 20.7507 7.75C16.4842 7.75 12.8685 9.93554 10.3646 13.1311L10.3645 13.1312C7.86963 16.3188 6.41669 20.5751 6.41669 24.9653C6.41669 34.7295 12.8663 42.5571 18.9676 47.8068L18.9683 47.8074C22.4368 50.7695 26.2082 53.3573 30.2197 55.5279L30.2203 55.5282C30.5591 55.7103 30.8276 55.8499 31.0136 55.9443L31.0149 55.9449L31.2282 56.0516L31.2303 56.0526L31.2856 56.0796L31.2876 56.0806L31.3014 56.0875L31.3015 56.0876L31.3068 56.0902L31.5332 56.2036L31.6437 55.9757L32.0069 55.2259L32.3884 55.9665L32.4925 56.1685L32.7035 56.0841L32.7102 56.0815L32.724 56.0759L32.737 56.0688L32.7499 56.0618L32.7517 56.0608ZM31.7755 20.6392L32.0001 21.0983L32.2246 20.6391L33.4219 18.1899C35.6109 13.7156 38.9619 10.9167 43.2507 10.9167C46.3538 10.9167 49.1127 12.4927 51.1418 15.0835C53.179 17.6852 54.4167 21.2436 54.4167 24.964C54.4167 32.9265 48.8777 39.9467 42.9566 45.136C39.6475 48.0126 36.0618 50.5547 32.2519 52.7249C32.2516 52.7251 32.2513 52.7253 32.251 52.7254L31.98 52.8766C28.0733 50.7869 24.4029 48.2825 21.0324 45.4065C15.1339 40.3324 9.58335 33.3093 9.58335 24.9653C9.58335 21.2449 10.8211 17.6852 12.8582 15.0835C14.8873 12.4927 17.6463 10.9167 20.7494 10.9167C25.0381 10.9167 28.3891 13.7156 30.5781 18.1925L30.5781 18.1926L31.7755 20.6392Z" fill="#E3C1DC" stroke="#E3C1DC" stroke-width="0.5"/>
<mask id="path-3-inside-1_6_90" fill="white">
<path d="M32 54.6667L32.6107 55.8521L32.0187 56.1561L31.4187 55.8668L32 54.6667Z"/>
</mask>
<path d="M32 54.6667L32.6107 55.8521L32.0187 56.1561L31.4187 55.8668L32 54.6667Z" fill="#E3C1DC"/>
<path d="M32 54.6667L32.889 54.2088L31.9725 52.4298L31.1001 54.2308L32 54.6667ZM32.6107 55.8521L33.0675 56.7416L33.9583 56.2842L33.4997 55.3941L32.6107 55.8521ZM32.0187 56.1561L31.5843 57.0568L32.0327 57.273L32.4755 57.0456L32.0187 56.1561ZM31.4187 55.8668L30.5187 55.4308L30.082 56.3324L30.9843 56.7675L31.4187 55.8668ZM31.1111 55.1247L31.7217 56.3101L33.4997 55.3941L32.889 54.2088L31.1111 55.1247ZM32.1539 54.9625L31.5619 55.2665L32.4755 57.0456L33.0675 56.7416L32.1539 54.9625ZM32.4531 55.2553L31.8531 54.966L30.9843 56.7675L31.5843 57.0568L32.4531 55.2553ZM32.3187 56.3027L32.9 55.1027L31.1001 54.2308L30.5187 55.4308L32.3187 56.3027Z" fill="#E3C1DC" mask="url(#path-3-inside-1_6_90)"/>
</svg>
